<?xml version="1.0" encoding="UTF-8"?>
<svg id="Layer_2" data-name="Layer 2" xmlns="http://www.w3.org/2000/svg" viewBox="0 0 337 337">
  <defs>
    <style>
      .cls-1 {
        fill: none;
        stroke: #1e1e1e;
        stroke-linecap: round;
        stroke-linejoin: round;
        stroke-width: 20px;
      }

      .cls-2 {
        fill: #1e1e1e;
        opacity: .95;
      }

      .cls-2, .cls-3 {
        stroke-width: 0px;
      }

      .cls-3 {
        fill: lime;
      }
    </style>
  </defs>
  <g id="Layer_1-2" data-name="Layer 1">
    <rect class="cls-3" width="337" height="337" rx="6.08" ry="6.08"/>
    <g>
      <g>
        <path class="cls-2" d="m42.95,13.5h0c-15.16,0-27.44,12.29-27.44,27.44h0v64.95c0,9.01,7.3,16.31,16.31,16.31h0c9.01,0,16.31-7.3,16.31-16.31v-46.99c0-7.07,5.73-12.8,12.8-12.8h46.99c9.01,0,16.31-7.3,16.31-16.31h0c0-9.01-7.3-16.31-16.31-16.31H42.95Z"/>
        <path class="cls-2" d="m323.5,40.94h0c0-15.16-12.29-27.44-27.44-27.44h-64.95c-9.01,0-16.31,7.3-16.31,16.31h0c0,9.01,7.3,16.31,16.31,16.31h46.99c7.07,0,12.8,5.73,12.8,12.8v46.99c0,9.01,7.3,16.31,16.31,16.31h0c9.01,0,16.31-7.3,16.31-16.31V40.94Z"/>
        <path class="cls-2" d="m294.05,323.5h0c15.16,0,27.44-12.29,27.44-27.44h0v-64.95c0-9.01-7.3-16.31-16.31-16.31h0c-9.01,0-16.31,7.3-16.31,16.31v46.99c0,7.07-5.73,12.8-12.8,12.8h-46.99c-9.01,0-16.31,7.3-16.31,16.31h0c0,9.01,7.3,16.31,16.31,16.31h64.95Z"/>
        <path class="cls-2" d="m13.5,296.06h0c0,15.16,12.29,27.44,27.44,27.44h64.95c9.01,0,16.31-7.3,16.31-16.31h0c0-9.01-7.3-16.31-16.31-16.31h-46.99c-7.07,0-12.8-5.73-12.8-12.8v-46.99c0-9.01-7.3-16.31-16.31-16.31h0c-9.01,0-16.31,7.3-16.31,16.31v64.95Z"/>
      </g>
      <path class="cls-1" d="m227.35,157.67v-21.01l-35.02-35.02h-63.04c-7.74,0-14.01,6.27-14.01,14.01v112.06c0,7.74,6.27,14.01,14.01,14.01h28.02"/>
      <path class="cls-1" d="m185.33,101.64v28.02c0,7.74,6.27,14.01,14.01,14.01h28.02"/>
      <path class="cls-1" d="m199.34,185.69c-7.74,0-14.01,6.27-14.01,14.01"/>
      <path class="cls-1" d="m227.35,185.69c7.74,0,14.01,6.27,14.01,14.01"/>
      <path class="cls-1" d="m227.35,241.72c7.74,0,14.01-6.27,14.01-14.01"/>
      <path class="cls-1" d="m199.34,241.72c-7.74,0-14.01-6.27-14.01-14.01"/>
    </g>
  </g>
</svg>